<svg xmlns="http://www.w3.org/2000/svg" xmlns:xlink="http://www.w3.org/1999/xlink" width="512" height="512" viewBox="0 0 512 512"><defs><clipPath id="b"><rect width="512" height="512"/></clipPath></defs><g id="a" clip-path="url(#b)"><rect width="512" height="512" fill="#fff"/><g transform="translate(89.77 97.424)"><path d="M141.324,0c56.355,0,102.021,32.693,102.021,73.038s-45.683,73.038-102.021,73.038a140.146,140.146,0,0,1-28.8-2.956c-17.031,12.411-38.043,19.755-58.813,17.39a70.928,70.928,0,0,0,25.441-29.563C54.908,117.614,39.28,96.63,39.28,73.049,39.28,32.728,84.969.012,141.3.012Z" transform="translate(-16.511)" fill="#005aff" fill-rule="evenodd"/><path d="M374.78,186.759c24.247-13.332,39.875-34.316,39.875-57.9,0-37.046-38.577-67.652-88.555-72.377q2.1,2.9,3.907,5.959a65.978,65.978,0,0,1,0,68.638A88.472,88.472,0,0,1,304.9,157.811c-17.674,12.648-40.066,20.561-64.192,22.85,18.445,13.112,43.852,21.21,71.907,21.21a140.133,140.133,0,0,0,28.792-2.95c17.03,12.4,38.043,19.749,58.813,17.39A70.628,70.628,0,0,1,374.78,186.759Z" transform="translate(-101.179 -23.741)" fill="#e0e0e0" fill-rule="evenodd"/><path d="M0,443.813V362.66H17.517v81.153Z" transform="translate(0 -152.439)" fill="#005aff"/><path d="M52.25,378.377v-15.7H70.985v15.7Zm.58,65.444v-57.05H70.376v57.05Z" transform="translate(-21.963 -152.448)" fill="#005aff"/><path d="M106.82,460.319v-57.05h16.81l.487,6.2a19.859,19.859,0,0,1,7.42-5.472,22.978,22.978,0,0,1,9.489-2.069q9.727,0,15.57,5.837t5.837,17.274v35.278H144.892V427.476a11.251,11.251,0,0,0-2.371-7.536,8.26,8.26,0,0,0-6.614-2.806q-5.71,0-8.695,3.774a13.7,13.7,0,0,0-2.979,8.759v30.653Z" transform="translate(-44.9 -168.946)" fill="#005aff"/><path d="M225.018,480.116l7.055-12.411a31.256,31.256,0,0,0,7.234,3.223,29.191,29.191,0,0,0,8.457,1.159q5.959,0,9.367-3.165t3.408-9.477v-4.011q-5.478,4.742-14.6,4.742a26.436,26.436,0,0,1-13.912-3.478,22.642,22.642,0,0,1-8.817-9.669,31.644,31.644,0,0,1-3.043-14.115,30.978,30.978,0,0,1,4.139-16.178A28.293,28.293,0,0,1,235.8,405.972a36.66,36.66,0,0,1,17.21-3.832,74.91,74.91,0,0,1,24.926,4.255v52.17q0,14.115-7.791,20.868t-21.285,6.753Q234.02,486.2,225.018,480.116Zm35.626-45.133V417.831a21.357,21.357,0,0,0-3.408-.91,26.611,26.611,0,0,0-4.5-.307q-7.536,0-11.251,4.637a17.112,17.112,0,0,0-3.71,11.066q0,6.086,3.043,9.8t8.637,3.71q5.344,0,8.272-2.614T260.644,434.984Z" transform="translate(-92.542 -169.034)" fill="#005aff"/><path d="M387.335,461.038h-5.217q-.122-1.7-.18-3.832t-.064-5.536a23.511,23.511,0,0,1-13.987,9.918,29.659,29.659,0,0,1-6.956.91,31.358,31.358,0,0,1-9.188-1.4,15.373,15.373,0,0,1-7.536-5.049q-2.979-3.652-2.979-10.219a19.935,19.935,0,0,1,2.435-9.854,17.116,17.116,0,0,1,7.785-7q5.356-2.614,14.109-2.614,5.113,0,9.124.365t6.811.881V424.45q0-9.24-4.376-12.527t-12.654-3.287q-6.956,0-11.014,2.006a32.512,32.512,0,0,0-6.266,3.832l-2.9-3.768a29.77,29.77,0,0,1,7.478-4.637,29.074,29.074,0,0,1,12.59-2.429q10.822,0,16.729,4.637t5.889,15.28v30.351c0,1.42.041,2.661.122,3.71Zm-5.721-20.671v-7.918a55.382,55.382,0,0,0-6.376-1.032,91.733,91.733,0,0,0-9.8-.429,26.138,26.138,0,0,0-9.854,1.524,13.865,13.865,0,0,0-5.536,3.832,11.489,11.489,0,0,0-2.429,4.863,22.293,22.293,0,0,0-.551,4.637q0,6.087,4.058,8.88a17.96,17.96,0,0,0,10.4,2.794,20.444,20.444,0,0,0,10.092-2.493,20.966,20.966,0,0,0,7.24-6.446,14.213,14.213,0,0,0,2.748-8.214Z" transform="translate(-143.43 -169.665)" fill="#1e1e1e"/><path d="M449.123,485.341v-75.42q0-2.191-.243-4.869h5.113q.243,2.556.365,4.5t.122,5.837a29.383,29.383,0,0,1,2.006-2.979,25.758,25.758,0,0,1,3.774-3.953,19.709,19.709,0,0,1,6.081-3.478,25,25,0,0,1,8.817-1.4q8.643,0,14.237,3.953a23.285,23.285,0,0,1,8.249,10.718,40.865,40.865,0,0,1,2.7,15.129,30.292,30.292,0,0,1-3.71,15.268,26.664,26.664,0,0,1-10.092,10.156A28.775,28.775,0,0,1,472,462.462a27.488,27.488,0,0,1-10.219-1.7,79.643,79.643,0,0,1-7.3-3.287V485.33Zm5.356-51.59v17.517q1.1.852,3.345,2.319a24.927,24.927,0,0,0,5.8,2.614,27.041,27.041,0,0,0,8.394,1.159,23.186,23.186,0,0,0,11.315-2.794,20.751,20.751,0,0,0,8.15-8.15,26.014,26.014,0,0,0,3.037-13.019,37.33,37.33,0,0,0-1.948-12.225,19.013,19.013,0,0,0-6.324-9.06q-4.371-3.408-11.674-3.408t-11.924,4.058a23.767,23.767,0,0,0-6.689,9.553,19.888,19.888,0,0,0-1.159,5.217,60.338,60.338,0,0,0-.319,6.231Z" transform="translate(-188.681 -169.639)" fill="#1e1e1e"/><path d="M560.32,380.17v-8.04h7.663v8.04Zm1.1,67.635V391.833h5.472v55.961Z" transform="translate(-235.523 -156.42)" fill="#1e1e1e"/></g></g></svg>